# xmcd
#
# Track frame offsets: 
#        150
#        8863
#        22846
#        33683
#        44835
#        55810
#        68412
#        78040
#        87953
#        98774
#        112427
#        126067
#        140715
#        154217
#        167262
#        177804
#        187352
#        201295
#        214520
#        227720
#        238714
#        251532
#        261971
#        273220
#
# Disc length: 3769 seconds
#
# Revision: 0
# Processed by: cddbd v1.5.2PL0 Copyright (c) Steve Scherf et al.
# Submitted via: ExactAudioCopy v1.3
#
DISCID=4f0eb718
DTITLE=Don Reno and Bill Harrell - CD3_Reno and Harrell
DYEAR=2010
DGENRE=Bluegrass
TTITLE0=Heaven's Treasures
TTITLE1=Let Me Look At Myself
TTITLE2=Salvation Is All I Need
TTITLE3=Walking On His Likeness
TTITLE4=Mother And Daddy Are Gone
TTITLE5=God's Bible Is Your Guide
TTITLE6=Stepping Stones To Glory
TTITLE7=Give The World A Sunny Smile
TTITLE8=Don't Judge
TTITLE9=Old Log Cabin
TTITLE10=I'm Just A Little Old Fashioned
TTITLE11=My Mother's Child
TTITLE12=Big Train
TTITLE13=You Give Me Your Love, I'll Give You Mine
TTITLE14=Sassy Fiddle
TTITLE15=Reno And Shuffler Hornpipe
TTITLE16=Mister Bottle
TTITLE17=Just A Phone Call Will Do
TTITLE18=Path That Leads Me Home
TTITLE19=Welcome Home
TTITLE20=I Told
TTITLE21=Where Is Jones
TTITLE22=Twelve String Time
TTITLE23=All The Way To Reno
EXTD=
EXTT0=
EXTT1=
EXTT2=
EXTT3=
EXTT4=
EXTT5=
EXTT6=
EXTT7=
EXTT8=
EXTT9=
EXTT10=
EXTT11=
EXTT12=
EXTT13=
EXTT14=
EXTT15=
EXTT16=
EXTT17=
EXTT18=
EXTT19=
EXTT20=
EXTT21=
EXTT22=
EXTT23=
PLAYORDER=
